<svg width="31" height="24" viewBox="0 0 31 24" fill="none" xmlns="http://www.w3.org/2000/svg">
<path d="M27.7174 0.693848H2.67084C1.19998 0.693848 0 1.89252 0 3.36469V21.1703C0 22.6374 1.19464 23.8411 2.67084 23.8411H27.7174C29.1845 23.8411 30.3882 22.6465 30.3882 21.1703V3.36469C30.3882 1.89751 29.1936 0.693848 27.7174 0.693848ZM27.3485 2.47441L15.2507 14.5723L3.04826 2.47441H27.3485ZM1.78056 20.8016V3.72489L10.3557 12.2265L1.78056 20.8016ZM3.03959 22.0605L11.6201 13.48L14.6267 16.4608C14.9747 16.8059 15.5364 16.8048 15.883 16.4581L18.8146 13.5265L27.3486 22.0605H3.03959ZM28.6076 20.8015L20.0736 12.2675L28.6076 3.73338V20.8015Z" fill="white"/>
</svg>
