<svg width="44" height="44" viewBox="0 0 44 44" fill="none" xmlns="http://www.w3.org/2000/svg">
<path d="M6.44531 44H20.7969V28.3594H15.6406V23.2031H20.7969V16.7578C20.7969 13.2038 23.6882 10.3125 27.2422 10.3125H33.6875V15.4688H28.5312C27.1096 15.4688 25.9531 16.6252 25.9531 18.0469V23.2031H33.4549L32.5955 28.3594H25.9531V44H37.5547C41.1087 44 44 41.1087 44 37.5547V6.44531C44 2.89133 41.1087 0 37.5547 0H6.44531C2.89133 0 0 2.89133 0 6.44531V37.5547C0 41.1087 2.89133 44 6.44531 44ZM2.57812 6.44531C2.57812 4.31299 4.31299 2.57812 6.44531 2.57812H37.5547C39.687 2.57812 41.4219 4.31299 41.4219 6.44531V37.5547C41.4219 39.687 39.687 41.4219 37.5547 41.4219H28.5312V30.9375H34.7795L36.4983 20.625H28.5312V18.0469H36.2656V7.73438H27.2422C22.2665 7.73438 18.2188 11.7822 18.2188 16.7578V20.625H13.0625V30.9375H18.2188V41.4219H6.44531C4.31299 41.4219 2.57812 39.687 2.57812 37.5547V6.44531Z" fill="white"/>
</svg>
