<svg width="44" height="44" viewBox="0 0 44 44" fill="none" xmlns="http://www.w3.org/2000/svg">
<path d="M6.44531 44H37.5547C41.1087 44 44 41.1087 44 37.5547V6.44531C44 2.89133 41.1087 0 37.5547 0H6.44531C2.89133 0 0 2.89133 0 6.44531V37.5547C0 41.1087 2.89133 44 6.44531 44ZM2.57812 6.44531C2.57812 4.31299 4.31299 2.57812 6.44531 2.57812H37.5547C39.687 2.57812 41.4219 4.31299 41.4219 6.44531V37.5547C41.4219 39.687 39.687 41.4219 37.5547 41.4219H6.44531C4.31299 41.4219 2.57812 39.687 2.57812 37.5547V6.44531Z" fill="white"/>
<path d="M22 33.6016C28.397 33.6016 33.6016 28.397 33.6016 22C33.6016 15.603 28.397 10.3984 22 10.3984C15.603 10.3984 10.3984 15.603 10.3984 22C10.3984 28.397 15.603 33.6016 22 33.6016ZM22 12.9766C26.9756 12.9766 31.0234 17.0244 31.0234 22C31.0234 26.9756 26.9756 31.0234 22 31.0234C17.0244 31.0234 12.9766 26.9756 12.9766 22C12.9766 17.0244 17.0244 12.9766 22 12.9766Z" fill="white"/>
<path d="M34.8906 12.9766C37.0229 12.9766 38.7578 11.2417 38.7578 9.10938C38.7578 6.97705 37.0229 5.24219 34.8906 5.24219C32.7583 5.24219 31.0234 6.97705 31.0234 9.10938C31.0234 11.2417 32.7583 12.9766 34.8906 12.9766ZM34.8906 7.82031C35.6013 7.82031 36.1797 8.39871 36.1797 9.10938C36.1797 9.82004 35.6013 10.3984 34.8906 10.3984C34.18 10.3984 33.6016 9.82004 33.6016 9.10938C33.6016 8.39871 34.18 7.82031 34.8906 7.82031Z" fill="white"/>
</svg>
