<svg width="44" height="44" viewBox="0 0 44 44" fill="none" xmlns="http://www.w3.org/2000/svg">
<path d="M37.5547 0H6.44531C2.89133 0 0 2.89133 0 6.44531V37.5547C0 41.1087 2.89133 44 6.44531 44H37.5547C41.1087 44 44 41.1087 44 37.5547V6.44531C44 2.89133 41.1087 0 37.5547 0ZM41.4219 37.5547C41.4219 39.687 39.687 41.4219 37.5547 41.4219H6.44531C4.31299 41.4219 2.57812 39.687 2.57812 37.5547V6.44531C2.57812 4.31299 4.31299 2.57812 6.44531 2.57812H37.5547C39.687 2.57812 41.4219 4.31299 41.4219 6.44531V37.5547Z" fill="white"/>
<path d="M7.82031 36.2656H15.5547V18.0469H7.82031V36.2656ZM10.3984 20.625H12.9766V33.6875H10.3984V20.625Z" fill="white"/>
<path d="M28.4527 18.0469C28.4503 18.0469 28.4477 18.0469 28.4453 18.0469C27.554 18.0469 26.6859 18.1959 25.8672 18.4853V18.0469H18.1328V36.2656H25.8672V27.0703C25.8672 26.3596 26.4456 25.7812 27.1562 25.7812C27.8669 25.7812 28.4453 26.3596 28.4453 27.0703V36.2656H36.1797V26.1841C36.1797 22.0121 32.7952 18.0509 28.4527 18.0469ZM33.6016 33.6875H31.0234V27.0703C31.0234 24.938 29.2886 23.2031 27.1562 23.2031C25.0239 23.2031 23.2894 24.938 23.2891 27.07V33.6875H20.7109V20.625H23.2891V23.2048L25.3522 21.6552C26.2495 20.9812 27.3191 20.625 28.4453 20.625H28.4503C31.1943 20.6277 33.6016 23.2253 33.6016 26.1841V33.6875Z" fill="white"/>
<path d="M7.82031 15.4688H15.5547V7.73438H7.82031V15.4688ZM10.3984 10.3125H12.9766V12.8906H10.3984V10.3125Z" fill="white"/>
</svg>
