<svg width="92" height="19" viewBox="0 0 92 19" fill="none" xmlns="http://www.w3.org/2000/svg">
<path d="M90.9 3.90001C90.2 2.70001 89.1 1.80001 87.7 1.10001C86.3 0.400006 84.7 0.100006 82.9 0.100006C80.7 0.100006 78.8 0.600006 77.1 1.50001C76.3 1.90001 75.6 2.40001 75 3.00001L73.7 9.60001L72.7 14.8C72.7 14.9 72.8 15 72.8 15C73.5 16.2 74.6 17.1 76 17.8C77.4 18.5 79 18.8 80.8 18.8C83 18.8 84.9 18.4 86.6 17.5C88.3 16.6 89.6 15.3 90.6 13.7C91.3 12.5 91.8 11.1 91.9 9.60001C92 9.10001 92 8.60001 92 8.10001C92 6.50001 91.6 5.10001 90.9 3.90001ZM85.4 11.2C85 12 84.5 12.7 83.8 13.2C83.1 13.7 82.3 13.9 81.3 13.9C80.2 13.9 79.3 13.6 78.7 13C78.1 12.4 77.8 11.5 77.8 10.5C77.8 10.2 77.8 9.90001 77.9 9.60001C78 8.90001 78.2 8.30001 78.4 7.70001C78.8 6.90001 79.3 6.20001 80 5.70001C80.6 5.20001 81.5 5.00001 82.4 5.00001C83.5 5.00001 84.4 5.30001 85 5.90001C85.6 6.50001 85.9 7.40001 85.9 8.40001C85.9 8.80001 85.9 9.20001 85.8 9.50001C85.8 10.1 85.6 10.7 85.4 11.2Z" fill="white"/>
<path d="M73.3 3.6L73.6 2.2L74 0.5H68.1L66.4 8.8L61.3 0.5H58.3V0.7L56.5 9.5L56 12C55.4 14.9 54.3 17 52.7 18.3C52.6 18.3 52.6 18.4 52.5 18.4H58.6L60.3 10.1L65.4 18.4H70.4L71.1 15L71.4 13.6L71.8 11.7L72.2 9.5L73 5.5L73.3 3.6Z" fill="white"/>
<path d="M54.9 9.59999L56.7 0.499994V0.399994H44.6L43.8 4.59999L43.7 4.99999H49.9L49 9.59999L48.4 12C48.3 12.6 48 13.1 47.6 13.5C47.2 13.8 46.8 14 46.2 14C45.2 14 44.3 13.5 43.5 12.5C43.3 13.2 43 13.8 42.6 14.4C42 15.4 41.3 16.3 40.4 17.1C41.7 18.3 43.6 18.8 46 18.8C47.6 18.8 48.9 18.6 50 18.1C50.3 18 50.6 17.8 50.9 17.6C51.1 17.5 51.3 17.3 51.6 17.1C51.7 17 51.8 16.9 51.9 16.8C53.1 15.7 53.9 14 54.4 11.7L54.9 9.59999Z" fill="white"/>
<path d="M41.7999 12.8C42.0999 12.3 42.3 11.8 42.4 11.2C42.6 10.7 42.7 10.1 42.7 9.5C42.8 9 42.7999 8.5 42.7999 7.9C42.7999 7.4 42.8 6.9 42.7 6.4C42.6 5.8 42.4 5.2 42.2 4.6C42.1 4.3 41.9 4 41.7 3.7C41 2.6 39.9 1.7 38.5 1C37.1 0.3 35.5 0 33.7 0C31.5 0 29.6 0.5 27.9 1.4C27.2 1.7 26.6 2.2 26.1 2.6L24.7 9.6L23.7 15C24.4 16.2 25.4999 17.1 26.7999 17.7C28.1999 18.4 29.8 18.7 31.6 18.7C33.8 18.7 35.7 18.2 37.4 17.3C37.7 17.1 37.9999 16.9 38.2999 16.8C38.4999 16.7 38.7 16.5 38.9 16.4C39.9 15.6 40.7 14.7 41.4 13.6C41.5 13.3 41.6999 13.1 41.7999 12.8ZM36.2 11.1C35.8 11.9 35.2999 12.6 34.5999 13.1C33.8999 13.6 33.0999 13.8 32.0999 13.8C30.9999 13.8 30.2 13.5 29.5 12.9C28.9 12.3 28.6 11.4 28.6 10.4C28.6 10.1 28.6 9.9 28.6 9.6C28.7 8.9 28.8 8.3 29.1 7.7C29.5 6.9 30 6.2 30.7 5.7C31.4 5.2 32.2 5 33.2 5C34.3 5 35.1999 5.3 35.7999 6C36.3999 6.6 36.7 7.5 36.7 8.5C36.7 8.9 36.6999 9.3 36.5999 9.7C36.5999 10.1 36.4 10.6 36.2 11.1Z" fill="white"/>
<path d="M24.5 3.09999L24.8 1.79999L25 0.399994H19.9L12.7 9.59999L12.4 9.89999L12.2 9.59999L8.5 0.399994H3.6L1.8 9.59999L0 18.3H5.5L7.1 10.3L9.9 16.7H12.5L17.6 10.2L16 18.3H21.5L22.1 15.3L22.3 14L22.6 12.4L23.2 9.59999L24.2 4.79999L24.5 3.09999Z" fill="white"/>
</svg>
