<svg width="37" height="44" viewBox="0 0 37 44" fill="none" xmlns="http://www.w3.org/2000/svg">
<path d="M4.66037 25.6362L6.15787 26.6131L6.72432 24.4952C7.72681 20.7724 7.62066 20.9368 7.72108 20.5236C7.6803 20.2916 6.62491 17.4946 7.35985 14.0964L7.37434 14.0182C8.37885 7.41107 19.478 5.61276 24.632 9.91199C26.8553 11.7667 27.692 14.5499 27.0507 17.9609C26.5904 20.4105 25.7867 22.237 24.5221 23.709C22.7763 25.7413 20.5806 25.9065 19.2798 25.1998C18.7956 24.937 17.7227 24.1461 18.2201 22.4881C18.9314 20.1151 20.2166 16.5409 20.3686 13.949C20.5041 11.6401 19.1063 9.76093 16.8904 9.27283C14.4204 8.72867 11.5743 10.0567 10.3437 13.1541C9.45816 15.3821 9.46052 17.6977 10.3511 20.2302C10.3801 20.8549 9.74189 23.2108 9.227 25.1115C7.67053 30.8579 5.53852 38.7273 7.61493 42.7344L8.27101 44L9.46928 43.2235C12.8939 41.0056 14.8945 34.5539 15.991 30.5347C18.8775 32.664 22.9677 32.8436 27.0133 30.8754C33.5081 27.7155 37.8405 20.1752 35.6698 11.7801C33.2503 2.42334 23.8603 -1.2035 14.4025 0.346064C6.60604 1.62304 1.64752 6.65408 0.331311 12.855C-0.779007 18.0868 0.960772 23.2232 4.66037 25.6362ZM2.8623 13.3881C4.03799 7.84815 8.50891 3.92321 14.8221 2.88894C22.4039 1.64688 31.0162 4.11322 33.1647 12.423C35.1518 20.1077 30.7807 26.1747 25.8781 28.5598C22.8706 30.0227 18.7835 30.4564 16.3314 27.2858L14.7314 25.2173L14.0568 27.7403C13.1658 31.0691 11.725 36.7201 9.41031 39.7404C8.95574 36.0045 10.6456 29.7649 11.7243 25.7832C12.7541 21.9822 13.1581 20.4014 12.8137 19.4386C12.1172 17.4913 12.096 15.746 12.7487 14.1025C13.4799 12.2625 15.0394 11.5042 16.3317 11.7889C16.7984 11.8919 17.8743 12.2934 17.7861 13.7987C17.6553 16.0253 16.4072 19.5296 15.7413 21.7506C15.0421 24.082 15.9448 26.3241 18.0415 27.4627C20.3976 28.7421 23.9348 28.3557 26.4873 25.3848C28.0589 23.5553 29.0459 21.3471 29.5932 18.4353C30.0164 16.1841 29.916 14.1142 29.295 12.2823C28.7174 10.5783 27.7071 9.11606 26.2925 7.93576C19.6172 2.36761 6.18112 4.92492 4.82279 13.5922C4.33924 15.8581 4.41843 18.2167 5.05766 20.6082C4.95489 21.0567 4.80898 21.6311 4.65431 22.2215C2.85387 20.1124 2.13882 16.7981 2.8623 13.3881Z" fill="white"/>
</svg>
