<svg width="44" height="42" viewBox="0 0 44 42" fill="none" xmlns="http://www.w3.org/2000/svg">
<path d="M3.85177 27.8288L2.08736 28.5195C0.21687 28.9406 -0.596854 31.0233 0.484082 32.6787C1.54823 34.3086 3.86822 34.8896 5.64706 35.2374C5.75717 35.7447 5.91662 36.4 6.31039 36.9726C6.92069 37.8596 7.88749 38.2505 9.03187 38.0729C12.9041 37.4738 13.3402 37.7836 14.786 38.8103C15.502 39.3186 16.6605 40.0994 17.4497 40.4725C18.8415 41.0471 20.42 41.3333 21.9977 41.3333C25.0035 41.3333 26.9435 40.2935 26.9519 40.2908C28.6838 39.2941 30.9608 37.0129 34.4459 37.9259C35.4698 38.194 36.3366 38.1076 37.0231 37.6692C38.0077 37.0405 38.2467 35.9378 38.3779 35.2273C40.3582 34.8213 42.9296 34.2248 43.7803 32.1741C44.0968 31.4112 44.0703 30.5749 43.7074 29.8805C43.362 29.2185 42.7366 28.7348 41.9806 28.54L40.1558 27.8315C38.0681 27.0208 36.4729 25.3919 35.6205 23.2528H37.5558C39.6882 23.2528 41.423 21.5142 41.423 19.3771C41.423 17.2402 39.6882 15.5017 37.5558 15.5017H34.9827L35.0945 14.2739C35.7874 6.63451 29.6952 0 22.0008 0C14.3288 0 8.21177 6.61029 8.90699 14.2742L9.01878 15.5017H6.44534C4.31301 15.5017 2.57814 17.2402 2.57814 19.3774C2.57814 21.5142 4.31301 23.2517 6.44534 23.2517H8.40446C7.55078 25.3788 5.94818 27.008 3.85177 27.8288ZM6.44534 20.6692C5.73468 20.6692 5.15628 20.0896 5.15628 19.3774C5.15628 18.6649 5.73468 18.0853 6.44534 18.0853H11.843L11.4747 14.0401C10.9047 7.75608 15.9673 2.58356 22.0008 2.58356C28.0312 2.58356 33.0968 7.75406 32.5268 14.0397L32.1589 18.0853H37.5558C38.2668 18.0853 38.8449 18.6649 38.8449 19.3774C38.8449 20.0896 38.2668 20.6692 37.5558 20.6692H32.3022L32.6298 22.2274C33.4234 26.0008 35.827 28.9215 39.2242 30.2405L41.225 31.0176C41.3203 31.0455 41.3146 31.024 41.422 31.0761C41.4244 31.0838 41.425 31.1209 41.3995 31.1824C41.04 32.0493 38.8194 32.5011 37.6263 32.744C37.4779 32.7743 37.3346 32.8032 37.198 32.8318C36.153 33.0511 35.9619 34.1024 35.8592 34.6672C35.8183 34.8923 35.735 35.3504 35.6343 35.4873C35.5866 35.4964 35.4272 35.5126 35.0979 35.4261C30.4837 34.2178 27.347 37.056 25.7226 38.0188C23.546 38.9738 20.7224 39.0085 18.4904 38.1076C17.5088 37.5774 16.8549 37.1132 16.2765 36.7024C14.3805 35.3561 13.3442 34.7917 8.6381 35.52C8.53001 35.5365 8.47159 35.5317 8.44843 35.528C8.31583 35.3868 8.19565 34.8246 8.14329 34.5811C8.01807 33.9954 7.80826 33.0151 6.80353 32.8271L6.71021 32.8096C5.57892 32.5983 3.22536 32.1586 2.64159 31.2642C2.57076 31.1558 2.57479 31.0855 2.58184 31.0694C2.59359 31.0421 2.7668 31.0223 2.79769 31.0152L4.7897 30.2354C8.16041 28.9161 10.5908 25.9759 11.3851 22.2869L11.7349 20.6692H6.44534Z" fill="white"/>
</svg>
