<svg xmlns="http://www.w3.org/2000/svg" width="26" height="25" viewBox="0 0 26 25"><g><g><g><path fill="#039be5" d="M12.79 25c6.904 0 12.5-5.596 12.5-12.5S19.694 0 12.79 0 .29 5.596.29 12.5 5.886 25 12.79 25z"/></g><g><path fill="#fff" d="M6.013 12.234l12.052-4.647c.56-.202 1.048.136.867.982l-2.051 9.667c-.153.685-.56.852-1.13.529l-3.125-2.303-1.507 1.452c-.167.167-.307.307-.63.307l.222-3.18 5.791-5.232c.252-.222-.056-.347-.388-.126l-7.157 4.506-3.086-.963c-.67-.212-.684-.67.142-.992z"/></g></g></g></svg>