<svg width="44" height="37" viewBox="0 0 44 37" fill="none" xmlns="http://www.w3.org/2000/svg">
<path d="M44 4.82294C41.2322 4.95086 41.2926 4.94042 40.9798 4.96668L42.619 0.272306C42.619 0.272306 37.5023 2.15982 36.2052 2.49746C32.7986 -0.572985 27.735 -0.708649 24.1149 1.52257C21.1504 3.35016 19.5592 6.48861 20.0899 10.1569C14.3203 9.35405 9.45917 6.61148 5.62119 1.98813L4.40732 0.526129L3.50027 2.19651C2.35388 4.30721 1.97321 6.72055 2.42807 8.99183C2.61472 9.92363 2.93195 10.8123 3.37137 11.6445L2.33005 11.2399L2.20651 12.9847C2.0813 14.757 2.66977 16.826 3.78091 18.5186C4.09378 18.9953 4.49661 19.5187 5.0072 20.0351L4.46909 19.9523L5.1257 21.9516C5.98877 24.5784 7.78137 26.6106 10.1077 27.7404C7.78439 28.7291 5.90753 29.3599 2.82251 30.3776L0 31.308L2.60699 32.7374C3.60098 33.2824 7.11334 35.1026 10.5837 35.6486C18.298 36.8618 26.9834 35.8738 32.8305 30.593C37.7554 26.1451 39.3715 19.818 39.0358 13.2338C38.9851 12.237 39.2573 11.2857 39.8025 10.5555C40.8945 9.09349 43.9933 4.8327 44 4.82294ZM37.741 9.00698C36.8356 10.2192 36.3821 11.7674 36.4633 13.3657C36.8021 20.0072 35.0001 25.1577 31.107 28.6735C26.5594 32.7808 19.2242 34.393 10.9829 33.0966C9.49039 32.8619 7.94788 32.3365 6.67123 31.8116C9.25775 30.9192 11.2551 30.1238 14.4808 28.5927L18.9838 26.4554L14.0122 26.1363C11.6308 25.9835 9.64783 24.8261 8.42892 22.947C9.07614 22.9093 9.7002 22.8043 10.3216 22.6306L15.0632 21.3063L10.282 20.1321C7.95862 19.5615 6.63431 18.1675 5.93237 17.0983C5.47147 16.3958 5.17035 15.6761 4.98975 15.0125C5.46912 15.1415 6.02805 15.2334 6.92938 15.3229L11.3548 15.7619L7.84851 13.019C5.32208 11.0429 4.30963 8.07416 5.05185 5.22017C12.9366 13.4213 22.1944 12.8049 23.1263 13.0217C22.9211 11.0238 22.9158 11.019 22.8621 10.8288C21.6687 6.59835 24.2841 4.45028 25.4637 3.72315C27.9277 2.20459 31.8388 1.97568 34.5479 4.47755C35.133 5.01751 35.9242 5.22993 36.6648 5.04545C37.3294 4.87983 37.8749 4.70444 38.409 4.51357L37.2972 7.69747L38.7165 7.69848C38.4486 8.05867 38.1274 8.4899 37.741 9.00698Z" fill="white"/>
</svg>
