<svg width="44" height="27" viewBox="0 0 44 27" fill="none" xmlns="http://www.w3.org/2000/svg">
<path d="M39.2509 17.3953L39.2271 17.3731C38.8515 17.0249 37.7007 15.9005 37.3127 15.4091C36.8571 14.796 36.9622 14.3942 37.3036 13.7922C37.735 13.0315 38.5994 11.8647 39.5141 10.629C42.4441 6.67272 44.3357 3.93385 43.9463 1.98839L43.7365 0.949263L32.9161 0.953982C32.8781 1.05645 32.3135 3.54691 29.9308 7.78769C28.2029 10.8626 27.0696 11.8286 26.6705 11.9991L26.6087 11.9803C26.4788 11.8192 26.2519 11.3844 26.1586 10.2637C26.0612 9.08971 26.1475 7.66837 26.2311 6.29388C26.3288 4.6821 26.413 3.29008 26.2113 2.2941L25.8826 0.671533C25.4855 0.607831 24.0316 0.044619 19.9808 0.00181353C16.4738 -0.0342509 15.4436 0.474359 14.9377 0.922636L13.2643 2.40532L15.3795 3.11987C16.1844 3.39187 16.4517 3.70566 16.6709 5.26115C16.8139 6.275 16.8887 7.97879 16.7343 9.4999C16.5124 11.681 15.9803 12.0868 15.9528 12.1083C15.8612 12.077 15.084 11.7356 13.7349 8.87164C12.799 6.8854 11.9785 4.53582 11.379 2.82023C10.6928 0.855563 10.8164 1.27384 10.4683 0.345605L0 0.345268L0.677429 2.10467C3.50162 9.44665 6.09283 15.1802 9.56055 19.2983C13.3918 23.8482 18.1533 26.2304 24.567 26.2304H25.8561V24.9362C25.8561 23.7261 25.9558 22.8549 26.1696 22.1943C26.3002 21.7918 26.4738 21.4591 26.6561 21.1103C26.9266 20.5966 27.1912 20.3765 27.3355 20.3438C27.4664 20.3138 27.6967 20.4102 27.9518 20.6013C28.6843 21.1497 29.2657 21.8703 29.8814 22.6334C30.7697 23.7346 31.6881 24.8728 33.1454 25.618C33.9416 26.0252 35.4012 26.2308 36.2045 26.2308C36.417 26.2308 43.9906 26.2304 44 26.2304L43.9446 24.8829C43.862 22.868 42.2826 20.3486 39.2509 17.3953ZM36.2545 23.6419H36.2337C35.6798 23.651 34.6227 23.4686 34.3152 23.3116C33.3464 22.8161 32.6693 21.9765 31.8848 21.0045C31.1963 20.1507 30.4843 19.268 29.493 18.5261C28.6914 17.9258 27.9633 17.7502 27.3852 17.7502C27.1542 17.7502 26.9468 17.7782 26.7689 17.8187C26.0978 17.9703 25.1381 18.455 24.375 19.904C24.1599 20.3162 23.9158 20.783 23.7181 21.3938C23.511 22.0328 23.382 22.743 23.3206 23.6068C18.4873 23.3311 14.7158 21.4113 11.5294 17.6272C8.56689 14.1087 6.23618 9.18746 3.76782 2.93281C3.94641 2.93281 8.42154 2.93348 8.68573 2.93348C8.76663 3.16166 8.85391 3.41176 8.94656 3.67668C9.59277 5.52742 10.478 8.06171 11.521 10.2229C13.0145 13.3177 14.3784 14.6979 15.9431 14.6979C16.7242 14.6979 17.4248 14.3656 17.969 13.7363C18.7448 12.8394 19.1953 11.3591 19.3463 9.21038C19.4655 7.51602 19.3547 5.82841 19.2238 4.89849C19.1157 4.13338 18.9616 3.33019 18.5857 2.61059C20.1879 2.53812 22.3333 2.65272 23.6926 2.84854C23.8161 3.52399 23.7355 4.85164 23.6577 6.13614C23.4693 9.23903 23.275 12.441 24.9108 13.9392C25.1985 14.2028 25.5036 14.344 25.5124 14.3497L26.3449 14.6062C26.6661 14.5068 28.5269 15.4546 32.0503 9.28082C33.1793 7.30267 34.2303 5.0232 34.7963 3.53444C36.1089 3.53175 40.5806 3.5368 41.106 3.53748C40.3618 5.18195 38.598 7.52748 37.4453 9.08432C36.4402 10.4413 35.5724 11.6132 35.0632 12.5111C34.1172 14.1792 34.2763 15.6659 35.2616 16.9774L35.277 16.9976C35.8269 17.7003 37.1848 19.0014 37.4664 19.2636C39.5067 21.2525 40.49 22.6813 40.9579 23.6415H36.2545V23.6419Z" fill="white"/>
</svg>
