<svg width="30" height="29" viewBox="0 0 30 29" fill="none" xmlns="http://www.w3.org/2000/svg">
<path d="M0.676514 29C1.31181 26.6383 1.9333 24.4148 2.51335 22.1636C2.61003 21.8046 2.55479 21.335 2.38906 21.0173C-1.69895 13.1175 2.36144 3.22899 10.8689 0.660178C19.4592 -1.93626 27.5662 3.42234 29.2511 11.5431C31.0327 20.1887 24.5002 28.4061 15.6613 28.7238C13.2858 28.8067 11.0623 28.2956 8.90777 27.3151C8.54869 27.1493 8.06531 27.0941 7.6786 27.1908C5.38601 27.757 3.09341 28.3785 0.676514 29ZM4.12922 25.5887C5.53793 25.2158 6.82233 24.8429 8.12055 24.5391C8.41058 24.47 8.79728 24.5253 9.05969 24.6772C10.5098 25.4782 12.029 26.0445 13.6725 26.224C21.5723 27.1079 28.022 20.5202 26.9585 12.6618C26.0194 5.83924 19.3626 1.1988 12.6229 2.69037C4.55736 4.48578 0.690324 13.6424 4.9993 20.6721C5.17884 20.9621 5.22028 21.4179 5.13741 21.7493C4.8612 23.0061 4.50211 24.2353 4.12922 25.5887Z" fill="white"/>
<path d="M18.5477 21.2798C16.7247 21.0036 14.7635 20.175 13.0095 18.8353C11.2279 17.4404 9.79162 15.7417 8.63151 13.8082C7.45759 11.847 7.63713 9.63731 9.08726 8.21479C9.99878 7.31709 11.2418 7.55187 11.7251 8.69817C11.9875 9.30585 12.1947 9.95496 12.4985 10.535C12.8162 11.1703 12.7471 11.6813 12.319 12.2476C11.4351 13.3939 11.4627 13.4077 12.3052 14.5678C13.3962 16.0593 14.8049 17.1228 16.4899 17.8409C16.8904 18.0067 17.1804 17.9652 17.4566 17.6062C17.7467 17.2195 18.0781 16.8604 18.3543 16.4737C18.6167 16.1284 18.9206 16.0179 19.3073 16.2113C20.2188 16.6532 21.1441 17.0675 22.0418 17.5233C22.2214 17.62 22.4561 17.8962 22.4285 18.0205C22.2628 18.711 22.1523 19.4844 21.7518 20.0507C21.1994 20.8655 19.8873 21.2937 18.5477 21.2798Z" fill="white"/>
</svg>
