<svg width="44" height="34" viewBox="0 0 44 34" fill="none" xmlns="http://www.w3.org/2000/svg">
<path d="M6.44531 0.484375H37.5547C41.1087 0.484375 44 3.3757 44 6.92969V27.5547C44 31.1087 41.1087 34 37.5547 34H6.44531C2.89133 34 0 31.1087 0 27.5547V6.92969C0 3.3757 2.89133 0.484375 6.44531 0.484375ZM2.57812 27.5547C2.57812 29.687 4.31299 31.4219 6.44531 31.4219H37.5547C39.687 31.4219 41.4219 29.687 41.4219 27.5547V6.92969C41.4219 4.79736 39.687 3.0625 37.5547 3.0625H6.44531C4.31299 3.0625 2.57812 4.79736 2.57812 6.92969V27.5547Z" fill="white"/>
<path d="M15.5547 25.8782V8.35571L31.0664 17.2607L15.5547 25.8782ZM18.1328 21.4968L25.8242 17.2237L18.1328 12.8084V21.4968Z" fill="white"/>
</svg>
